<mxfile host="app.diagrams.net" modified="2023-05-23T02:53:10.162Z" agent="Mozilla/5.0 (Macintosh; Intel Mac OS X 10_15_7) AppleWebKit/537.36 (KHTML, like Gecko) Chrome/112.0.0.0 Safari/537.36" etag="0aSGAGKgWbwlFf-mcX3j" version="21.3.2" type="github">
  <diagram name="第 1 页" id="LSY_fD50DNP1YUyeNuG-">
    <mxGraphModel dx="2261" dy="716" grid="1" gridSize="10" guides="1" tooltips="1" connect="1" arrows="1" fold="1" page="1" pageScale="1" pageWidth="827" pageHeight="1169" math="0" shadow="0">
      <root>
        <mxCell id="0" />
        <mxCell id="1" parent="0" />
        <mxCell id="OI_3pbJ4UBU4_Da3ujg2-68" value="" style="endArrow=none;html=1;rounded=0;strokeWidth=3;strokeColor=#CCCCCC;fontSize=18;" parent="1" edge="1">
          <mxGeometry width="50" height="50" relative="1" as="geometry">
            <mxPoint x="40" y="681" as="sourcePoint" />
            <mxPoint x="310.0000637748517" y="680.035714057947" as="targetPoint" />
          </mxGeometry>
        </mxCell>
        <mxCell id="OI_3pbJ4UBU4_Da3ujg2-1" value="" style="endArrow=none;html=1;rounded=0;strokeWidth=3;strokeColor=#000000;fontSize=18;" parent="1" source="OI_3pbJ4UBU4_Da3ujg2-81" edge="1">
          <mxGeometry width="50" height="50" relative="1" as="geometry">
            <mxPoint x="270" y="359" as="sourcePoint" />
            <mxPoint x="960" y="360" as="targetPoint" />
          </mxGeometry>
        </mxCell>
        <mxCell id="OI_3pbJ4UBU4_Da3ujg2-2" value="master" style="text;html=1;strokeColor=none;fillColor=none;align=center;verticalAlign=middle;whiteSpace=wrap;rounded=0;fontSize=18;" parent="1" vertex="1">
          <mxGeometry x="-21" y="344" width="60" height="30" as="geometry" />
        </mxCell>
        <mxCell id="OI_3pbJ4UBU4_Da3ujg2-3" value="" style="endArrow=none;html=1;rounded=0;strokeWidth=3;fillColor=#60a917;strokeColor=#2D7600;fontSize=18;" parent="1" source="OI_3pbJ4UBU4_Da3ujg2-99" edge="1">
          <mxGeometry width="50" height="50" relative="1" as="geometry">
            <mxPoint x="40" y="280" as="sourcePoint" />
            <mxPoint x="960" y="280" as="targetPoint" />
          </mxGeometry>
        </mxCell>
        <mxCell id="OI_3pbJ4UBU4_Da3ujg2-4" value="tag" style="text;html=1;strokeColor=none;fillColor=none;align=center;verticalAlign=middle;whiteSpace=wrap;rounded=0;fontSize=18;" parent="1" vertex="1">
          <mxGeometry x="-20" y="264" width="60" height="30" as="geometry" />
        </mxCell>
        <mxCell id="OI_3pbJ4UBU4_Da3ujg2-5" value="" style="ellipse;whiteSpace=wrap;html=1;aspect=fixed;fillColor=#d5e8d4;strokeColor=#82b366;fontSize=18;" parent="1" vertex="1">
          <mxGeometry x="110" y="270" width="20" height="20" as="geometry" />
        </mxCell>
        <mxCell id="OI_3pbJ4UBU4_Da3ujg2-6" value="" style="endArrow=none;html=1;rounded=0;strokeWidth=3;strokeColor=#CCCCCC;fontSize=18;" parent="1" source="OI_3pbJ4UBU4_Da3ujg2-95" edge="1">
          <mxGeometry width="50" height="50" relative="1" as="geometry">
            <mxPoint x="690" y="440" as="sourcePoint" />
            <mxPoint x="960" y="440" as="targetPoint" />
          </mxGeometry>
        </mxCell>
        <mxCell id="OI_3pbJ4UBU4_Da3ujg2-7" value="test" style="text;html=1;strokeColor=none;fillColor=none;align=center;verticalAlign=middle;whiteSpace=wrap;rounded=0;fontSize=18;" parent="1" vertex="1">
          <mxGeometry x="-20" y="423" width="60" height="30" as="geometry" />
        </mxCell>
        <mxCell id="OI_3pbJ4UBU4_Da3ujg2-8" value="" style="endArrow=none;html=1;rounded=0;strokeWidth=3;strokeColor=#CCCCCC;fontSize=18;" parent="1" source="OI_3pbJ4UBU4_Da3ujg2-49" edge="1">
          <mxGeometry width="50" height="50" relative="1" as="geometry">
            <mxPoint x="40" y="520" as="sourcePoint" />
            <mxPoint x="960" y="520" as="targetPoint" />
          </mxGeometry>
        </mxCell>
        <mxCell id="OI_3pbJ4UBU4_Da3ujg2-10" value="" style="endArrow=none;html=1;rounded=0;strokeWidth=3;strokeColor=#CCCCCC;fontSize=18;" parent="1" edge="1">
          <mxGeometry width="50" height="50" relative="1" as="geometry">
            <mxPoint x="449.9999511722326" y="599.0312498474132" as="sourcePoint" />
            <mxPoint x="960" y="600" as="targetPoint" />
          </mxGeometry>
        </mxCell>
        <mxCell id="OI_3pbJ4UBU4_Da3ujg2-11" value="feature/A" style="text;html=1;strokeColor=none;fillColor=none;align=center;verticalAlign=middle;whiteSpace=wrap;rounded=0;fontSize=18;" parent="1" vertex="1">
          <mxGeometry x="-24" y="585" width="60" height="30" as="geometry" />
        </mxCell>
        <mxCell id="OI_3pbJ4UBU4_Da3ujg2-12" value="" style="endArrow=none;html=1;rounded=0;strokeWidth=3;strokeColor=#CCCCCC;fontSize=18;" parent="1" source="OI_3pbJ4UBU4_Da3ujg2-93" edge="1">
          <mxGeometry width="50" height="50" relative="1" as="geometry">
            <mxPoint x="310" y="680" as="sourcePoint" />
            <mxPoint x="960" y="680" as="targetPoint" />
          </mxGeometry>
        </mxCell>
        <mxCell id="OI_3pbJ4UBU4_Da3ujg2-13" value="feature/B" style="text;html=1;strokeColor=none;fillColor=none;align=center;verticalAlign=middle;whiteSpace=wrap;rounded=0;fontSize=18;" parent="1" vertex="1">
          <mxGeometry x="-24" y="664" width="60" height="30" as="geometry" />
        </mxCell>
        <mxCell id="OI_3pbJ4UBU4_Da3ujg2-15" value="时间线" style="text;html=1;strokeColor=none;fillColor=none;align=center;verticalAlign=middle;whiteSpace=wrap;rounded=0;fontSize=18;" parent="1" vertex="1">
          <mxGeometry x="-20" y="745" width="60" height="30" as="geometry" />
        </mxCell>
        <mxCell id="OI_3pbJ4UBU4_Da3ujg2-16" value="" style="endArrow=classicThin;html=1;rounded=0;strokeWidth=3;startArrow=none;startFill=0;endFill=1;fillColor=#bac8d3;strokeColor=#B3B3B3;fontSize=18;" parent="1" edge="1">
          <mxGeometry width="50" height="50" relative="1" as="geometry">
            <mxPoint x="40" y="760" as="sourcePoint" />
            <mxPoint x="960" y="760" as="targetPoint" />
          </mxGeometry>
        </mxCell>
        <mxCell id="OI_3pbJ4UBU4_Da3ujg2-17" value="" style="ellipse;whiteSpace=wrap;html=1;aspect=fixed;fillColor=#dae8fc;strokeColor=#6c8ebf;fontSize=18;" parent="1" vertex="1">
          <mxGeometry x="190" y="669" width="20" height="20" as="geometry" />
        </mxCell>
        <mxCell id="OI_3pbJ4UBU4_Da3ujg2-19" value="" style="endArrow=none;html=1;rounded=0;strokeWidth=3;strokeColor=#000000;fontSize=18;" parent="1" target="OI_3pbJ4UBU4_Da3ujg2-18" edge="1">
          <mxGeometry width="50" height="50" relative="1" as="geometry">
            <mxPoint x="40" y="360" as="sourcePoint" />
            <mxPoint x="600" y="360" as="targetPoint" />
          </mxGeometry>
        </mxCell>
        <mxCell id="OI_3pbJ4UBU4_Da3ujg2-21" style="edgeStyle=orthogonalEdgeStyle;rounded=0;orthogonalLoop=1;jettySize=auto;html=1;exitX=0.5;exitY=0;exitDx=0;exitDy=0;entryX=0.5;entryY=1;entryDx=0;entryDy=0;fontSize=18;" parent="1" source="OI_3pbJ4UBU4_Da3ujg2-18" target="OI_3pbJ4UBU4_Da3ujg2-5" edge="1">
          <mxGeometry relative="1" as="geometry" />
        </mxCell>
        <mxCell id="OI_3pbJ4UBU4_Da3ujg2-22" value="add tag" style="edgeLabel;html=1;align=center;verticalAlign=middle;resizable=0;points=[];fontSize=18;" parent="OI_3pbJ4UBU4_Da3ujg2-21" vertex="1" connectable="0">
          <mxGeometry x="0.0847" relative="1" as="geometry">
            <mxPoint as="offset" />
          </mxGeometry>
        </mxCell>
        <mxCell id="OI_3pbJ4UBU4_Da3ujg2-18" value="" style="ellipse;whiteSpace=wrap;html=1;aspect=fixed;fillColor=#d5e8d4;strokeColor=#82b366;fontSize=18;" parent="1" vertex="1">
          <mxGeometry x="110" y="349" width="20" height="20" as="geometry" />
        </mxCell>
        <mxCell id="OI_3pbJ4UBU4_Da3ujg2-23" value="v1.0.0" style="text;html=1;strokeColor=none;fillColor=none;align=center;verticalAlign=middle;whiteSpace=wrap;rounded=0;fontSize=18;" parent="1" vertex="1">
          <mxGeometry x="90" y="240" width="60" height="30" as="geometry" />
        </mxCell>
        <mxCell id="OI_3pbJ4UBU4_Da3ujg2-25" value="" style="endArrow=none;dashed=1;html=1;rounded=0;entryX=0.5;entryY=1;entryDx=0;entryDy=0;fontSize=18;" parent="1" target="OI_3pbJ4UBU4_Da3ujg2-18" edge="1">
          <mxGeometry width="50" height="50" relative="1" as="geometry">
            <mxPoint x="120" y="800" as="sourcePoint" />
            <mxPoint x="320" y="510" as="targetPoint" />
          </mxGeometry>
        </mxCell>
        <mxCell id="OI_3pbJ4UBU4_Da3ujg2-26" value="大版本发布" style="text;html=1;strokeColor=#82b366;fillColor=#d5e8d4;align=center;verticalAlign=middle;whiteSpace=wrap;rounded=0;fontSize=16;" parent="1" vertex="1">
          <mxGeometry x="40" y="792" width="101" height="30" as="geometry" />
        </mxCell>
        <mxCell id="OI_3pbJ4UBU4_Da3ujg2-27" value="" style="endArrow=blockThin;html=1;rounded=0;entryX=0.5;entryY=0;entryDx=0;entryDy=0;endFill=0;fontSize=18;" parent="1" target="OI_3pbJ4UBU4_Da3ujg2-17" edge="1">
          <mxGeometry width="50" height="50" relative="1" as="geometry">
            <mxPoint x="120" y="370" as="sourcePoint" />
            <mxPoint x="320" y="510" as="targetPoint" />
          </mxGeometry>
        </mxCell>
        <mxCell id="OI_3pbJ4UBU4_Da3ujg2-28" value="" style="endArrow=none;dashed=1;html=1;rounded=0;exitX=0.5;exitY=1;exitDx=0;exitDy=0;fontSize=18;" parent="1" source="OI_3pbJ4UBU4_Da3ujg2-17" edge="1">
          <mxGeometry width="50" height="50" relative="1" as="geometry">
            <mxPoint x="270" y="560" as="sourcePoint" />
            <mxPoint x="200" y="800" as="targetPoint" />
          </mxGeometry>
        </mxCell>
        <mxCell id="OI_3pbJ4UBU4_Da3ujg2-29" value="B需求开发" style="text;html=1;strokeColor=#6c8ebf;fillColor=#dae8fc;align=center;verticalAlign=middle;whiteSpace=wrap;rounded=0;fontSize=16;" parent="1" vertex="1">
          <mxGeometry x="147" y="792" width="80" height="30" as="geometry" />
        </mxCell>
        <mxCell id="OI_3pbJ4UBU4_Da3ujg2-31" value="hotfix/A" style="text;html=1;strokeColor=none;fillColor=none;align=center;verticalAlign=middle;whiteSpace=wrap;rounded=0;fontSize=18;" parent="1" vertex="1">
          <mxGeometry x="-22" y="505" width="60" height="30" as="geometry" />
        </mxCell>
        <mxCell id="OI_3pbJ4UBU4_Da3ujg2-33" value="" style="endArrow=none;html=1;rounded=0;strokeWidth=3;strokeColor=#CCCCCC;fontSize=18;" parent="1" target="OI_3pbJ4UBU4_Da3ujg2-32" edge="1">
          <mxGeometry width="50" height="50" relative="1" as="geometry">
            <mxPoint x="40" y="601" as="sourcePoint" />
            <mxPoint x="600" y="601" as="targetPoint" />
          </mxGeometry>
        </mxCell>
        <mxCell id="OI_3pbJ4UBU4_Da3ujg2-32" value="" style="ellipse;whiteSpace=wrap;html=1;aspect=fixed;fillColor=#dae8fc;strokeColor=#6c8ebf;fontSize=18;" parent="1" vertex="1">
          <mxGeometry x="270" y="590" width="20" height="20" as="geometry" />
        </mxCell>
        <mxCell id="OI_3pbJ4UBU4_Da3ujg2-34" value="" style="endArrow=blockThin;html=1;rounded=0;entryX=0.5;entryY=0;entryDx=0;entryDy=0;endFill=0;fontSize=18;" parent="1" target="OI_3pbJ4UBU4_Da3ujg2-32" edge="1">
          <mxGeometry width="50" height="50" relative="1" as="geometry">
            <mxPoint x="120" y="370" as="sourcePoint" />
            <mxPoint x="320" y="510" as="targetPoint" />
          </mxGeometry>
        </mxCell>
        <mxCell id="OI_3pbJ4UBU4_Da3ujg2-36" value="" style="endArrow=none;html=1;rounded=0;strokeWidth=3;strokeColor=#000000;fontSize=18;" parent="1" source="OI_3pbJ4UBU4_Da3ujg2-18" target="OI_3pbJ4UBU4_Da3ujg2-35" edge="1">
          <mxGeometry width="50" height="50" relative="1" as="geometry">
            <mxPoint x="130" y="359" as="sourcePoint" />
            <mxPoint x="600" y="360" as="targetPoint" />
          </mxGeometry>
        </mxCell>
        <mxCell id="OI_3pbJ4UBU4_Da3ujg2-35" value="" style="ellipse;whiteSpace=wrap;html=1;aspect=fixed;fillColor=#f8cecc;strokeColor=#b85450;fontSize=18;" parent="1" vertex="1">
          <mxGeometry x="191" y="349" width="20" height="20" as="geometry" />
        </mxCell>
        <mxCell id="OI_3pbJ4UBU4_Da3ujg2-38" value="" style="endArrow=none;html=1;rounded=0;strokeWidth=3;strokeColor=#000000;fontSize=18;" parent="1" source="OI_3pbJ4UBU4_Da3ujg2-35" edge="1">
          <mxGeometry width="50" height="50" relative="1" as="geometry">
            <mxPoint x="211" y="359" as="sourcePoint" />
            <mxPoint x="270" y="359" as="targetPoint" />
          </mxGeometry>
        </mxCell>
        <mxCell id="OI_3pbJ4UBU4_Da3ujg2-41" value="" style="endArrow=none;html=1;rounded=0;strokeWidth=3;strokeColor=#CCCCCC;fontSize=18;" parent="1" edge="1">
          <mxGeometry width="50" height="50" relative="1" as="geometry">
            <mxPoint x="41" y="440" as="sourcePoint" />
            <mxPoint x="270.0000875323208" y="439.04184063794014" as="targetPoint" />
          </mxGeometry>
        </mxCell>
        <mxCell id="OI_3pbJ4UBU4_Da3ujg2-42" value="" style="endArrow=classic;html=1;rounded=0;exitX=0.5;exitY=1;exitDx=0;exitDy=0;entryX=0.5;entryY=0;entryDx=0;entryDy=0;fontSize=18;" parent="1" source="OI_3pbJ4UBU4_Da3ujg2-35" target="OI_3pbJ4UBU4_Da3ujg2-49" edge="1">
          <mxGeometry width="50" height="50" relative="1" as="geometry">
            <mxPoint x="270" y="430" as="sourcePoint" />
            <mxPoint x="280" y="428" as="targetPoint" />
          </mxGeometry>
        </mxCell>
        <mxCell id="OI_3pbJ4UBU4_Da3ujg2-46" value="BUG" style="text;html=1;align=center;verticalAlign=middle;resizable=0;points=[];autosize=1;strokeColor=none;fillColor=none;fontSize=18;" parent="1" vertex="1">
          <mxGeometry x="170" y="323" width="60" height="40" as="geometry" />
        </mxCell>
        <mxCell id="OI_3pbJ4UBU4_Da3ujg2-48" value="" style="endArrow=none;html=1;rounded=0;strokeWidth=3;strokeColor=#CCCCCC;fontSize=18;" parent="1" edge="1">
          <mxGeometry width="50" height="50" relative="1" as="geometry">
            <mxPoint x="270" y="439" as="sourcePoint" />
            <mxPoint x="390" y="439" as="targetPoint" />
          </mxGeometry>
        </mxCell>
        <mxCell id="OI_3pbJ4UBU4_Da3ujg2-50" value="" style="endArrow=none;html=1;rounded=0;strokeWidth=3;strokeColor=#CCCCCC;fontSize=18;" parent="1" target="OI_3pbJ4UBU4_Da3ujg2-49" edge="1">
          <mxGeometry width="50" height="50" relative="1" as="geometry">
            <mxPoint x="40" y="520" as="sourcePoint" />
            <mxPoint x="600" y="520" as="targetPoint" />
          </mxGeometry>
        </mxCell>
        <mxCell id="OI_3pbJ4UBU4_Da3ujg2-49" value="" style="ellipse;whiteSpace=wrap;html=1;aspect=fixed;fillColor=#f8cecc;strokeColor=#b85450;fontSize=18;" parent="1" vertex="1">
          <mxGeometry x="350" y="510" width="20" height="20" as="geometry" />
        </mxCell>
        <mxCell id="OI_3pbJ4UBU4_Da3ujg2-51" value="" style="ellipse;whiteSpace=wrap;html=1;aspect=fixed;fillColor=#f8cecc;strokeColor=#b85450;fontSize=18;" parent="1" vertex="1">
          <mxGeometry x="429" y="510" width="20" height="20" as="geometry" />
        </mxCell>
        <mxCell id="OI_3pbJ4UBU4_Da3ujg2-53" value="" style="endArrow=none;html=1;rounded=0;strokeWidth=3;strokeColor=#CCCCCC;fontSize=18;" parent="1" target="OI_3pbJ4UBU4_Da3ujg2-52" edge="1">
          <mxGeometry width="50" height="50" relative="1" as="geometry">
            <mxPoint x="390" y="439" as="sourcePoint" />
            <mxPoint x="601" y="439" as="targetPoint" />
          </mxGeometry>
        </mxCell>
        <mxCell id="OI_3pbJ4UBU4_Da3ujg2-52" value="" style="ellipse;whiteSpace=wrap;html=1;aspect=fixed;fillColor=#e1d5e7;strokeColor=#9673a6;fontSize=18;" parent="1" vertex="1">
          <mxGeometry x="469" y="428" width="20" height="20" as="geometry" />
        </mxCell>
        <mxCell id="OI_3pbJ4UBU4_Da3ujg2-57" value="" style="endArrow=none;html=1;rounded=0;strokeWidth=3;strokeColor=#000000;fontSize=18;" parent="1" target="OI_3pbJ4UBU4_Da3ujg2-56" edge="1">
          <mxGeometry width="50" height="50" relative="1" as="geometry">
            <mxPoint x="270" y="359" as="sourcePoint" />
            <mxPoint x="600" y="359" as="targetPoint" />
          </mxGeometry>
        </mxCell>
        <mxCell id="OI_3pbJ4UBU4_Da3ujg2-63" style="edgeStyle=orthogonalEdgeStyle;rounded=0;orthogonalLoop=1;jettySize=auto;html=1;exitX=0.5;exitY=0;exitDx=0;exitDy=0;entryX=0.5;entryY=1;entryDx=0;entryDy=0;fontSize=18;" parent="1" source="OI_3pbJ4UBU4_Da3ujg2-56" target="OI_3pbJ4UBU4_Da3ujg2-64" edge="1">
          <mxGeometry relative="1" as="geometry">
            <mxPoint x="520" y="300" as="targetPoint" />
          </mxGeometry>
        </mxCell>
        <mxCell id="OI_3pbJ4UBU4_Da3ujg2-65" value="add tag" style="edgeLabel;html=1;align=center;verticalAlign=middle;resizable=0;points=[];fontSize=18;" parent="OI_3pbJ4UBU4_Da3ujg2-63" vertex="1" connectable="0">
          <mxGeometry x="0.0333" relative="1" as="geometry">
            <mxPoint as="offset" />
          </mxGeometry>
        </mxCell>
        <mxCell id="OI_3pbJ4UBU4_Da3ujg2-56" value="" style="ellipse;whiteSpace=wrap;html=1;aspect=fixed;fillColor=#d5e8d4;strokeColor=#82b366;fontSize=18;" parent="1" vertex="1">
          <mxGeometry x="590" y="349" width="20" height="20" as="geometry" />
        </mxCell>
        <mxCell id="OI_3pbJ4UBU4_Da3ujg2-59" value="提测" style="endArrow=classic;html=1;rounded=0;entryX=0.5;entryY=1;entryDx=0;entryDy=0;exitX=0.5;exitY=0;exitDx=0;exitDy=0;fillColor=#e1d5e7;strokeColor=#9673a6;fontSize=18;" parent="1" source="OI_3pbJ4UBU4_Da3ujg2-51" target="OI_3pbJ4UBU4_Da3ujg2-52" edge="1">
          <mxGeometry width="50" height="50" relative="1" as="geometry">
            <mxPoint x="300" y="590" as="sourcePoint" />
            <mxPoint x="350" y="540" as="targetPoint" />
          </mxGeometry>
        </mxCell>
        <mxCell id="OI_3pbJ4UBU4_Da3ujg2-61" value="" style="endArrow=classic;html=1;rounded=0;entryX=0.5;entryY=1;entryDx=0;entryDy=0;exitX=0.5;exitY=0;exitDx=0;exitDy=0;fillColor=#d5e8d4;strokeColor=#82b366;fontSize=18;" parent="1" source="OI_3pbJ4UBU4_Da3ujg2-52" target="OI_3pbJ4UBU4_Da3ujg2-56" edge="1">
          <mxGeometry width="50" height="50" relative="1" as="geometry">
            <mxPoint x="300" y="590" as="sourcePoint" />
            <mxPoint x="350" y="540" as="targetPoint" />
          </mxGeometry>
        </mxCell>
        <mxCell id="OI_3pbJ4UBU4_Da3ujg2-62" value="紧急发布" style="edgeLabel;html=1;align=center;verticalAlign=middle;resizable=0;points=[];fontSize=18;" parent="OI_3pbJ4UBU4_Da3ujg2-61" vertex="1" connectable="0">
          <mxGeometry x="0.1564" y="-1" relative="1" as="geometry">
            <mxPoint as="offset" />
          </mxGeometry>
        </mxCell>
        <mxCell id="OI_3pbJ4UBU4_Da3ujg2-64" value="" style="ellipse;whiteSpace=wrap;html=1;aspect=fixed;fillColor=#d5e8d4;strokeColor=#82b366;fontSize=18;" parent="1" vertex="1">
          <mxGeometry x="590" y="269" width="20" height="20" as="geometry" />
        </mxCell>
        <mxCell id="OI_3pbJ4UBU4_Da3ujg2-66" value="v1.0.1" style="text;html=1;strokeColor=none;fillColor=none;align=center;verticalAlign=middle;whiteSpace=wrap;rounded=0;fontSize=18;" parent="1" vertex="1">
          <mxGeometry x="568" y="239" width="60" height="30" as="geometry" />
        </mxCell>
        <mxCell id="OI_3pbJ4UBU4_Da3ujg2-70" value="" style="endArrow=none;html=1;rounded=0;strokeWidth=3;strokeColor=#CCCCCC;fontSize=18;" parent="1" source="OI_3pbJ4UBU4_Da3ujg2-32" target="OI_3pbJ4UBU4_Da3ujg2-69" edge="1">
          <mxGeometry width="50" height="50" relative="1" as="geometry">
            <mxPoint x="290" y="600" as="sourcePoint" />
            <mxPoint x="600" y="601" as="targetPoint" />
          </mxGeometry>
        </mxCell>
        <mxCell id="OI_3pbJ4UBU4_Da3ujg2-69" value="" style="ellipse;whiteSpace=wrap;html=1;aspect=fixed;fillColor=#dae8fc;strokeColor=#6c8ebf;fontSize=18;" parent="1" vertex="1">
          <mxGeometry x="631" y="590" width="20" height="20" as="geometry" />
        </mxCell>
        <mxCell id="OI_3pbJ4UBU4_Da3ujg2-71" value="" style="endArrow=none;dashed=1;html=1;rounded=0;fontSize=18;" parent="1" edge="1">
          <mxGeometry width="50" height="50" relative="1" as="geometry">
            <mxPoint x="600" y="800" as="sourcePoint" />
            <mxPoint x="600" y="370" as="targetPoint" />
          </mxGeometry>
        </mxCell>
        <mxCell id="OI_3pbJ4UBU4_Da3ujg2-72" value="热修复发布" style="text;html=1;align=center;verticalAlign=middle;resizable=0;points=[];autosize=1;strokeColor=#82b366;fillColor=#d5e8d4;fontSize=16;" parent="1" vertex="1">
          <mxGeometry x="573" y="791" width="100" height="30" as="geometry" />
        </mxCell>
        <mxCell id="OI_3pbJ4UBU4_Da3ujg2-73" value="" style="endArrow=none;dashed=1;html=1;rounded=0;exitX=0.5;exitY=1;exitDx=0;exitDy=0;fontSize=18;" parent="1" source="OI_3pbJ4UBU4_Da3ujg2-32" edge="1">
          <mxGeometry width="50" height="50" relative="1" as="geometry">
            <mxPoint x="370" y="600" as="sourcePoint" />
            <mxPoint x="280" y="800" as="targetPoint" />
          </mxGeometry>
        </mxCell>
        <mxCell id="OI_3pbJ4UBU4_Da3ujg2-74" value="A需求开发" style="text;html=1;align=center;verticalAlign=middle;resizable=0;points=[];autosize=1;strokeColor=#6c8ebf;fillColor=#dae8fc;fontSize=16;" parent="1" vertex="1">
          <mxGeometry x="230" y="792" width="100" height="30" as="geometry" />
        </mxCell>
        <mxCell id="OI_3pbJ4UBU4_Da3ujg2-76" value="" style="endArrow=none;html=1;rounded=0;strokeWidth=3;strokeColor=#CCCCCC;fontSize=18;" parent="1" source="OI_3pbJ4UBU4_Da3ujg2-52" target="OI_3pbJ4UBU4_Da3ujg2-75" edge="1">
          <mxGeometry width="50" height="50" relative="1" as="geometry">
            <mxPoint x="531" y="438" as="sourcePoint" />
            <mxPoint x="760" y="440" as="targetPoint" />
          </mxGeometry>
        </mxCell>
        <mxCell id="OI_3pbJ4UBU4_Da3ujg2-75" value="" style="ellipse;whiteSpace=wrap;html=1;aspect=fixed;fillColor=#e1d5e7;strokeColor=#9673a6;fontSize=18;" parent="1" vertex="1">
          <mxGeometry x="670" y="428" width="20" height="20" as="geometry" />
        </mxCell>
        <mxCell id="OI_3pbJ4UBU4_Da3ujg2-78" value="" style="endArrow=classic;html=1;rounded=0;exitX=0.5;exitY=0;exitDx=0;exitDy=0;fillColor=#e1d5e7;strokeColor=#9673a6;fontSize=18;" parent="1" source="OI_3pbJ4UBU4_Da3ujg2-69" edge="1">
          <mxGeometry width="50" height="50" relative="1" as="geometry">
            <mxPoint x="370" y="600" as="sourcePoint" />
            <mxPoint x="680" y="450" as="targetPoint" />
          </mxGeometry>
        </mxCell>
        <mxCell id="OI_3pbJ4UBU4_Da3ujg2-79" value="提测" style="edgeLabel;html=1;align=center;verticalAlign=middle;resizable=0;points=[];fontSize=18;" parent="OI_3pbJ4UBU4_Da3ujg2-78" vertex="1" connectable="0">
          <mxGeometry x="0.1062" y="-1" relative="1" as="geometry">
            <mxPoint x="-1" as="offset" />
          </mxGeometry>
        </mxCell>
        <mxCell id="OI_3pbJ4UBU4_Da3ujg2-80" value="" style="endArrow=classic;html=1;rounded=0;exitX=1;exitY=0.5;exitDx=0;exitDy=0;entryX=0;entryY=0.5;entryDx=0;entryDy=0;fontSize=18;" parent="1" source="OI_3pbJ4UBU4_Da3ujg2-32" target="OI_3pbJ4UBU4_Da3ujg2-69" edge="1">
          <mxGeometry width="50" height="50" relative="1" as="geometry">
            <mxPoint x="370" y="600" as="sourcePoint" />
            <mxPoint x="420" y="550" as="targetPoint" />
          </mxGeometry>
        </mxCell>
        <mxCell id="OI_3pbJ4UBU4_Da3ujg2-82" value="" style="endArrow=none;html=1;rounded=0;strokeWidth=3;strokeColor=#000000;fontSize=18;" parent="1" source="OI_3pbJ4UBU4_Da3ujg2-56" target="OI_3pbJ4UBU4_Da3ujg2-81" edge="1">
          <mxGeometry width="50" height="50" relative="1" as="geometry">
            <mxPoint x="610" y="359" as="sourcePoint" />
            <mxPoint x="960" y="360" as="targetPoint" />
          </mxGeometry>
        </mxCell>
        <mxCell id="OI_3pbJ4UBU4_Da3ujg2-86" value="add tag" style="edgeStyle=orthogonalEdgeStyle;rounded=0;orthogonalLoop=1;jettySize=auto;html=1;exitX=0.5;exitY=0;exitDx=0;exitDy=0;entryX=0.5;entryY=1;entryDx=0;entryDy=0;fontSize=18;" parent="1" source="OI_3pbJ4UBU4_Da3ujg2-81" target="OI_3pbJ4UBU4_Da3ujg2-84" edge="1">
          <mxGeometry relative="1" as="geometry" />
        </mxCell>
        <mxCell id="OI_3pbJ4UBU4_Da3ujg2-81" value="" style="ellipse;whiteSpace=wrap;html=1;aspect=fixed;fillColor=#d5e8d4;strokeColor=#82b366;fontSize=18;" parent="1" vertex="1">
          <mxGeometry x="750" y="349" width="20" height="20" as="geometry" />
        </mxCell>
        <mxCell id="OI_3pbJ4UBU4_Da3ujg2-83" value="发布" style="endArrow=classic;html=1;rounded=0;exitX=0.5;exitY=0;exitDx=0;exitDy=0;fillColor=#d5e8d4;strokeColor=#82b366;fontSize=18;" parent="1" source="OI_3pbJ4UBU4_Da3ujg2-75" edge="1">
          <mxGeometry width="50" height="50" relative="1" as="geometry">
            <mxPoint x="640" y="590" as="sourcePoint" />
            <mxPoint x="760" y="370" as="targetPoint" />
          </mxGeometry>
        </mxCell>
        <mxCell id="OI_3pbJ4UBU4_Da3ujg2-85" value="" style="endArrow=none;html=1;rounded=0;strokeWidth=3;fillColor=#60a917;strokeColor=#2D7600;fontSize=18;" parent="1" target="OI_3pbJ4UBU4_Da3ujg2-84" edge="1">
          <mxGeometry width="50" height="50" relative="1" as="geometry">
            <mxPoint x="40" y="280" as="sourcePoint" />
            <mxPoint x="960" y="280" as="targetPoint" />
          </mxGeometry>
        </mxCell>
        <mxCell id="OI_3pbJ4UBU4_Da3ujg2-84" value="" style="ellipse;whiteSpace=wrap;html=1;aspect=fixed;fillColor=#d5e8d4;strokeColor=#82b366;fontSize=18;" parent="1" vertex="1">
          <mxGeometry x="750" y="270" width="20" height="20" as="geometry" />
        </mxCell>
        <mxCell id="OI_3pbJ4UBU4_Da3ujg2-87" value="v1.1.1" style="text;html=1;strokeColor=none;fillColor=none;align=center;verticalAlign=middle;whiteSpace=wrap;rounded=0;fontSize=18;" parent="1" vertex="1">
          <mxGeometry x="730" y="239" width="60" height="30" as="geometry" />
        </mxCell>
        <mxCell id="OI_3pbJ4UBU4_Da3ujg2-88" value="" style="endArrow=none;dashed=1;html=1;rounded=0;fontSize=18;" parent="1" edge="1">
          <mxGeometry width="50" height="50" relative="1" as="geometry">
            <mxPoint x="759.5" y="800" as="sourcePoint" />
            <mxPoint x="759.5" y="370" as="targetPoint" />
          </mxGeometry>
        </mxCell>
        <mxCell id="OI_3pbJ4UBU4_Da3ujg2-89" value="小版本发布" style="text;html=1;align=center;verticalAlign=middle;resizable=0;points=[];autosize=1;strokeColor=#82b366;fillColor=#d5e8d4;fontSize=16;" parent="1" vertex="1">
          <mxGeometry x="710" y="791" width="100" height="30" as="geometry" />
        </mxCell>
        <mxCell id="OI_3pbJ4UBU4_Da3ujg2-90" value="" style="endArrow=classic;html=1;rounded=0;exitX=1;exitY=0.5;exitDx=0;exitDy=0;entryX=0;entryY=0.5;entryDx=0;entryDy=0;fontSize=18;" parent="1" source="OI_3pbJ4UBU4_Da3ujg2-49" target="OI_3pbJ4UBU4_Da3ujg2-51" edge="1">
          <mxGeometry width="50" height="50" relative="1" as="geometry">
            <mxPoint x="480" y="600" as="sourcePoint" />
            <mxPoint x="530" y="550" as="targetPoint" />
          </mxGeometry>
        </mxCell>
        <mxCell id="OI_3pbJ4UBU4_Da3ujg2-91" value="" style="endArrow=none;dashed=1;html=1;rounded=0;entryX=0.5;entryY=1;entryDx=0;entryDy=0;fontSize=18;" parent="1" target="OI_3pbJ4UBU4_Da3ujg2-52" edge="1">
          <mxGeometry width="50" height="50" relative="1" as="geometry">
            <mxPoint x="479" y="800" as="sourcePoint" />
            <mxPoint x="530" y="550" as="targetPoint" />
          </mxGeometry>
        </mxCell>
        <mxCell id="OI_3pbJ4UBU4_Da3ujg2-92" value="测试验收完成" style="text;html=1;align=center;verticalAlign=middle;resizable=0;points=[];autosize=1;fillColor=#e1d5e7;strokeColor=#9673a6;fontSize=16;" parent="1" vertex="1">
          <mxGeometry x="434" y="791" width="120" height="30" as="geometry" />
        </mxCell>
        <mxCell id="OI_3pbJ4UBU4_Da3ujg2-94" value="" style="endArrow=none;html=1;rounded=0;strokeWidth=3;strokeColor=#CCCCCC;fontSize=18;" parent="1" target="OI_3pbJ4UBU4_Da3ujg2-93" edge="1">
          <mxGeometry width="50" height="50" relative="1" as="geometry">
            <mxPoint x="310" y="680" as="sourcePoint" />
            <mxPoint x="960" y="680" as="targetPoint" />
          </mxGeometry>
        </mxCell>
        <mxCell id="OI_3pbJ4UBU4_Da3ujg2-93" value="" style="ellipse;whiteSpace=wrap;html=1;aspect=fixed;fillColor=#dae8fc;strokeColor=#6c8ebf;fontSize=18;" parent="1" vertex="1">
          <mxGeometry x="790" y="669" width="20" height="20" as="geometry" />
        </mxCell>
        <mxCell id="OI_3pbJ4UBU4_Da3ujg2-96" value="" style="endArrow=none;html=1;rounded=0;strokeWidth=3;strokeColor=#CCCCCC;fontSize=18;" parent="1" target="OI_3pbJ4UBU4_Da3ujg2-95" edge="1">
          <mxGeometry width="50" height="50" relative="1" as="geometry">
            <mxPoint x="690" y="440" as="sourcePoint" />
            <mxPoint x="960" y="440" as="targetPoint" />
          </mxGeometry>
        </mxCell>
        <mxCell id="OI_3pbJ4UBU4_Da3ujg2-95" value="" style="ellipse;whiteSpace=wrap;html=1;aspect=fixed;fillColor=#e1d5e7;strokeColor=#9673a6;fontSize=18;" parent="1" vertex="1">
          <mxGeometry x="830" y="433" width="20" height="20" as="geometry" />
        </mxCell>
        <mxCell id="OI_3pbJ4UBU4_Da3ujg2-97" value="提测" style="endArrow=classic;html=1;rounded=0;exitX=0.5;exitY=0;exitDx=0;exitDy=0;entryX=0.5;entryY=1;entryDx=0;entryDy=0;fillColor=#e1d5e7;strokeColor=#9673a6;fontSize=18;" parent="1" source="OI_3pbJ4UBU4_Da3ujg2-93" target="OI_3pbJ4UBU4_Da3ujg2-95" edge="1">
          <mxGeometry width="50" height="50" relative="1" as="geometry">
            <mxPoint x="480" y="600" as="sourcePoint" />
            <mxPoint x="530" y="550" as="targetPoint" />
          </mxGeometry>
        </mxCell>
        <mxCell id="OI_3pbJ4UBU4_Da3ujg2-98" value="" style="ellipse;whiteSpace=wrap;html=1;aspect=fixed;fillColor=#d5e8d4;strokeColor=#82b366;fontSize=18;" parent="1" vertex="1">
          <mxGeometry x="910" y="349" width="20" height="20" as="geometry" />
        </mxCell>
        <mxCell id="OI_3pbJ4UBU4_Da3ujg2-100" value="" style="endArrow=none;html=1;rounded=0;strokeWidth=3;fillColor=#60a917;strokeColor=#2D7600;fontSize=18;" parent="1" source="OI_3pbJ4UBU4_Da3ujg2-84" target="OI_3pbJ4UBU4_Da3ujg2-99" edge="1">
          <mxGeometry width="50" height="50" relative="1" as="geometry">
            <mxPoint x="770" y="280" as="sourcePoint" />
            <mxPoint x="960" y="280" as="targetPoint" />
          </mxGeometry>
        </mxCell>
        <mxCell id="OI_3pbJ4UBU4_Da3ujg2-99" value="" style="ellipse;whiteSpace=wrap;html=1;aspect=fixed;fillColor=#d5e8d4;strokeColor=#82b366;fontSize=18;" parent="1" vertex="1">
          <mxGeometry x="910" y="270" width="20" height="20" as="geometry" />
        </mxCell>
        <mxCell id="OI_3pbJ4UBU4_Da3ujg2-101" value="v2.1.1" style="text;html=1;strokeColor=none;fillColor=none;align=center;verticalAlign=middle;whiteSpace=wrap;rounded=0;fontSize=18;" parent="1" vertex="1">
          <mxGeometry x="890" y="239" width="60" height="30" as="geometry" />
        </mxCell>
        <mxCell id="OI_3pbJ4UBU4_Da3ujg2-102" value="发布" style="endArrow=classic;html=1;rounded=0;exitX=0.5;exitY=0;exitDx=0;exitDy=0;fillColor=#d5e8d4;strokeColor=#82b366;fontSize=18;" parent="1" source="OI_3pbJ4UBU4_Da3ujg2-95" edge="1">
          <mxGeometry width="50" height="50" relative="1" as="geometry">
            <mxPoint x="480" y="600" as="sourcePoint" />
            <mxPoint x="920" y="370" as="targetPoint" />
          </mxGeometry>
        </mxCell>
        <mxCell id="OI_3pbJ4UBU4_Da3ujg2-103" value="" style="endArrow=none;dashed=1;html=1;rounded=0;fontSize=18;" parent="1" edge="1">
          <mxGeometry width="50" height="50" relative="1" as="geometry">
            <mxPoint x="919.5" y="799" as="sourcePoint" />
            <mxPoint x="919.5" y="369" as="targetPoint" />
          </mxGeometry>
        </mxCell>
        <mxCell id="OI_3pbJ4UBU4_Da3ujg2-104" value="大版本发布" style="text;html=1;align=center;verticalAlign=middle;resizable=0;points=[];autosize=1;strokeColor=#82b366;fillColor=#d5e8d4;fontSize=16;" parent="1" vertex="1">
          <mxGeometry x="870" y="791" width="100" height="30" as="geometry" />
        </mxCell>
        <mxCell id="OI_3pbJ4UBU4_Da3ujg2-105" value="" style="endArrow=none;dashed=1;html=1;rounded=0;entryX=0.5;entryY=1;entryDx=0;entryDy=0;fontSize=18;" parent="1" target="OI_3pbJ4UBU4_Da3ujg2-49" edge="1">
          <mxGeometry width="50" height="50" relative="1" as="geometry">
            <mxPoint x="360" y="800" as="sourcePoint" />
            <mxPoint x="530" y="550" as="targetPoint" />
          </mxGeometry>
        </mxCell>
        <mxCell id="OI_3pbJ4UBU4_Da3ujg2-106" value="BUG修复" style="text;html=1;align=center;verticalAlign=middle;resizable=0;points=[];autosize=1;strokeColor=#b85450;fillColor=#f8cecc;fontSize=16;" parent="1" vertex="1">
          <mxGeometry x="334" y="792" width="90" height="30" as="geometry" />
        </mxCell>
        <mxCell id="OI_3pbJ4UBU4_Da3ujg2-107" value="add tag" style="endArrow=classic;html=1;rounded=0;entryX=0.5;entryY=1;entryDx=0;entryDy=0;exitX=0.5;exitY=0;exitDx=0;exitDy=0;fontSize=18;" parent="1" source="OI_3pbJ4UBU4_Da3ujg2-98" target="OI_3pbJ4UBU4_Da3ujg2-99" edge="1">
          <mxGeometry width="50" height="50" relative="1" as="geometry">
            <mxPoint x="920" y="340" as="sourcePoint" />
            <mxPoint x="530" y="550" as="targetPoint" />
          </mxGeometry>
        </mxCell>
        <mxCell id="OI_3pbJ4UBU4_Da3ujg2-108" value="" style="endArrow=classic;html=1;rounded=0;entryX=0;entryY=0.5;entryDx=0;entryDy=0;fontSize=18;" parent="1" target="OI_3pbJ4UBU4_Da3ujg2-93" edge="1">
          <mxGeometry width="50" height="50" relative="1" as="geometry">
            <mxPoint x="210" y="680" as="sourcePoint" />
            <mxPoint x="530" y="550" as="targetPoint" />
          </mxGeometry>
        </mxCell>
      </root>
    </mxGraphModel>
  </diagram>
</mxfile>
